<?xml version="1.0" encoding="utf-8"?>
<!-- Generator: Adobe Illustrator 27.0.0, SVG Export Plug-In . SVG Version: 6.00 Build 0)  -->
<svg version="1.1" id="Layer_1" xmlns="http://www.w3.org/2000/svg" xmlns:xlink="http://www.w3.org/1999/xlink" x="0px" y="0px"
	 viewBox="0 0 360.01 383.86" style="enable-background:new 0 0 360.01 383.86;" xml:space="preserve">
<style type="text/css">
	.st0{fill:#050402;}
	.st1{fill:#FEC250;}
	.st2{fill:#FED063;}
	.st3{fill:#FDDF7C;}
	.st4{fill:#FC7F86;}
	.st5{fill:#E3636D;}
	.st6{fill:#050401;}
	.st7{fill:#060402;}
</style>
<g>
	<path class="st0" d="M182.24,383.86c-1.5,0-3,0-4.5,0c-0.8-1.42-2.39-1.6-3.66-2.21c-56.15-27.14-112.3-54.27-168.51-81.29
		c-3.87-1.86-5.59-4.2-5.58-8.59C0.1,225.2,0.09,158.64,0.01,92.07c-0.01-4.17,1.46-6.57,5.27-8.4
		c51.27-24.62,102.5-49.35,153.69-74.14c6.31-3.06,12.89-5.63,18.78-9.53c1.5,0,3,0,4.5,0c0.54,1.1,1.72,1.24,2.66,1.69
		c56.38,27.22,112.76,54.46,169.18,81.59c4.1,1.97,5.93,4.44,5.92,9.18c-0.13,66.31-0.13,132.63-0.01,198.94
		c0.01,4.52-1.57,7.06-5.59,8.99c-49.03,23.54-98.03,47.16-146.98,70.88C198.99,375.36,190.28,378.95,182.24,383.86z M241.63,143.64
		c-0.2-0.15-0.38-0.33-0.59-0.44C186.2,116.72,131.37,90.24,76.56,63.72c-1.53-0.74-2.71-0.65-4.17,0.07
		c-5.69,2.83-11.43,5.53-17.15,8.29c-11.96,5.78-23.91,11.57-35.92,17.39c0.88,1.34,2.16,1.59,3.26,2.12
		c38.56,18.64,77.13,37.27,115.7,55.92c5.13,2.48,5.79,3.85,4.6,9.03c-2.76,3.3-5.84,2.91-9.38,1.2
		c-32.3-15.66-64.64-31.24-96.96-46.84c-8.27-3.99-16.53-7.98-25.21-12.17c0,1.27,0,1.98,0,2.7c0,62.08,0.03,124.17-0.09,186.25
		c-0.01,2.83,1.45,3.55,3.38,4.48c47.59,22.96,95.18,45.94,142.76,68.91c5.46,2.64,10.95,5.24,16.42,7.85
		c0.84-1.46,0.52-2.73,0.52-3.94c0.02-61.21-0.01-122.42,0.1-183.62c0.01-3.16-1.05-4.71-3.8-5.83c-3.34-1.36-6.55-3.04-9.8-4.63
		c-4.28-2.1-5.07-4-3.72-8.74c2.47-2.99,5.37-3.1,8.66-1.42c3.54,1.81,7.24,3.3,10.69,5.25c2.42,1.36,4.38,1.37,6.9,0.12
		c11.44-5.71,23.03-11.12,34.49-16.79c3.59-1.78,6.61-1.78,9.28,1.44c1.02,4.86,0.27,6.52-4.12,8.66
		c-11.32,5.5-22.62,11.07-34.03,16.37c-2.55,1.18-3.39,2.52-3.39,5.29c0.08,61.34,0.06,122.68,0.06,184.02
		c0,4.15,0.02,4.16,3.88,2.3c51.97-25.07,103.93-50.17,155.94-75.17c2.52-1.21,3.27-2.59,3.26-5.34
		c-0.09-61.47-0.07-122.93-0.07-184.4c0-1.07,0-2.14,0-3.63c-0.85,0.38-1.28,0.55-1.7,0.75c-15.94,7.69-31.85,15.43-47.85,23
		c-2.24,1.06-2.27,2.54-2.27,4.46c0.03,20.74-0.06,41.48,0.08,62.21c0.03,4.2-1.54,6.7-5.29,8.46
		c-12.63,5.94-25.17,12.07-37.74,18.13c-7.01,3.37-10.35,1.26-10.35-6.57c-0.01-20.49,0.01-40.98-0.02-61.47
		C243.52,146.21,244.23,144.14,241.63,143.64z M341.33,89.76c-7.26-3.51-13.76-6.66-20.27-9.79c-46.1-22.25-92.21-44.49-138.28-66.8
		c-2.01-0.97-3.51-1.03-5.5,0.01c-4.86,2.54-9.87,4.77-14.8,7.16c-9.46,4.57-18.9,9.16-28.39,13.76c0.7,1.26,1.76,1.44,2.63,1.86
		c51.92,25.08,103.86,50.12,155.75,75.26c1.87,0.91,3.18,0.63,4.82-0.17c10.3-5.02,20.63-9.99,30.95-14.97
		C332.35,94.08,336.48,92.1,341.33,89.76z M281.78,118.51c-8.68-4.19-16.4-7.92-24.13-11.65c-44.54-21.51-89.09-43.02-133.64-64.51
		c-1.4-0.67-2.74-1.91-4.53-1.04c-10.35,5.03-20.7,10.06-31.55,15.33c1.64,0.83,2.73,1.39,3.83,1.93
		c17.83,8.63,35.66,17.27,53.5,25.89c33.66,16.25,67.33,32.49,101,48.72c1.19,0.57,2.25,1.42,3.82,0.65
		C260.35,128.82,270.65,123.88,281.78,118.51z M285.61,159.26c0-8.99-0.03-17.99,0.03-26.98c0.01-2.06-0.12-3.12-2.6-1.88
		c-8.71,4.32-17.48,8.55-26.28,12.68c-1.71,0.8-1.96,1.91-1.96,3.54c0.03,17.74,0.07,35.48-0.03,53.21
		c-0.02,2.88,0.92,2.74,2.98,1.73c8.39-4.12,16.81-8.21,25.27-12.18c1.96-0.92,2.68-2.05,2.65-4.25
		C285.53,176.5,285.61,167.88,285.61,159.26z"/>
	<path class="st1" d="M157.1,162.15c-1.35,4.74-0.56,6.64,3.72,8.74c3.24,1.59,6.46,3.27,9.8,4.63c2.75,1.12,3.81,2.66,3.8,5.83
		c-0.11,61.21-0.08,122.42-0.1,183.62c0,1.21,0.32,2.48-0.52,3.94c-5.48-2.62-10.96-5.21-16.42-7.85
		c-47.59-22.97-95.17-45.95-142.76-68.91c-1.93-0.93-3.39-1.65-3.38-4.48c0.12-62.08,0.09-124.17,0.09-186.25c0-0.71,0-1.43,0-2.7
		c8.68,4.19,16.94,8.18,25.21,12.17c32.33,15.6,64.67,31.18,96.96,46.84c3.54,1.72,6.62,2.11,9.38-1.2
		c2.06,0.01,3.69,1.17,5.48,1.96C151.25,159.76,153.82,161.81,157.1,162.15z M30.09,229.27c-3.21,0.03-5.06,1.56-5.78,4.23
		c-0.74,2.76,0.4,5.05,2.88,6.26c16.32,7.96,32.67,15.87,49.06,23.69c3.13,1.49,6.36,0.23,7.64-2.55c1.42-3.1,0.03-6.19-3.86-8.08
		c-15.56-7.54-31.14-15.04-46.71-22.55C32.21,229.73,31.08,229.17,30.09,229.27z M60.85,273.78c0-2.2-1-3.92-2.93-4.86
		c-8.73-4.27-17.46-8.53-26.28-12.61c-2.95-1.36-5.42-0.08-6.88,2.7c-1.53,2.9-0.73,5.71,2.01,7.11
		c8.87,4.52,17.85,8.87,26.94,12.93C57.19,280.61,60.86,277.58,60.85,273.78z"/>
	<path class="st2" d="M241.63,143.64c2.6,0.5,1.89,2.57,1.9,4.19c0.03,20.49,0.01,40.98,0.02,61.47c0,7.83,3.34,9.95,10.35,6.57
		c12.57-6.06,25.11-12.19,37.74-18.13c3.76-1.77,5.32-4.27,5.29-8.46c-0.14-20.74-0.05-41.48-0.08-62.21c0-1.93,0.02-3.4,2.27-4.46
		c16-7.56,31.91-15.31,47.85-23c0.42-0.2,0.85-0.38,1.7-0.75c0,1.49,0,2.56,0,3.63c0,61.47-0.02,122.93,0.07,184.4
		c0,2.75-0.74,4.13-3.26,5.34c-52.01,25-103.97,50.09-155.94,75.17c-3.87,1.87-3.88,1.85-3.88-2.3c0-61.34,0.02-122.68-0.06-184.02
		c0-2.77,0.84-4.11,3.39-5.29c11.41-5.3,22.71-10.87,34.03-16.37c4.39-2.13,5.15-3.8,4.12-8.66
		C232.02,148.51,237.36,147.17,241.63,143.64z"/>
	<path class="st3" d="M241.63,143.64c-4.26,3.53-9.6,4.87-14.5,7.1c-2.67-3.22-5.69-3.22-9.28-1.44
		c-11.46,5.67-23.05,11.08-34.49,16.79c-2.52,1.26-4.48,1.25-6.9-0.12c-3.45-1.95-7.16-3.44-10.69-5.25
		c-3.29-1.68-6.19-1.57-8.66,1.42c-3.28-0.35-5.85-2.39-8.75-3.66c-1.78-0.78-3.42-1.95-5.48-1.96c1.19-5.18,0.52-6.55-4.6-9.03
		c-38.56-18.65-77.13-37.28-115.7-55.92c-1.1-0.53-2.38-0.78-3.26-2.12c12.01-5.81,23.96-11.61,35.92-17.39
		c5.72-2.76,11.46-5.47,17.15-8.29c1.46-0.73,2.64-0.81,4.17-0.07c54.81,26.52,109.65,52.99,164.48,79.48
		C241.25,143.31,241.43,143.49,241.63,143.64z"/>
	<path class="st3" d="M341.33,89.76c-4.85,2.34-8.98,4.32-13.1,6.31c-10.32,4.98-20.65,9.95-30.95,14.97
		c-1.64,0.8-2.95,1.07-4.82,0.17c-51.89-25.14-103.83-50.19-155.75-75.26c-0.86-0.42-1.92-0.6-2.63-1.86
		c9.49-4.6,18.94-9.19,28.39-13.76c4.93-2.38,9.94-4.62,14.8-7.16c1.99-1.04,3.49-0.98,5.5-0.01
		c46.07,22.31,92.18,44.55,138.28,66.8C327.56,83.11,334.06,86.25,341.33,89.76z"/>
	<path class="st4" d="M281.78,118.51c-11.13,5.37-21.43,10.3-31.69,15.33c-1.57,0.77-2.63-0.08-3.82-0.65
		c-33.67-16.23-67.34-32.47-101-48.72c-17.84-8.61-35.67-17.25-53.5-25.89c-1.1-0.53-2.19-1.1-3.83-1.93
		c10.84-5.27,21.2-10.3,31.55-15.33c1.78-0.87,3.13,0.36,4.53,1.04c44.55,21.49,89.1,43,133.64,64.51
		C265.38,110.59,273.1,114.32,281.78,118.51z"/>
	<path class="st5" d="M285.61,159.26c0,8.62-0.08,17.24,0.06,25.86c0.03,2.2-0.69,3.33-2.65,4.25c-8.46,3.98-16.88,8.06-25.27,12.18
		c-2.06,1.01-3,1.15-2.98-1.73c0.1-17.74,0.06-35.48,0.03-53.21c0-1.62,0.25-2.74,1.96-3.54c8.8-4.13,17.57-8.35,26.28-12.68
		c2.48-1.23,2.62-0.18,2.6,1.88C285.57,141.27,285.61,150.27,285.61,159.26z"/>
	<path class="st6" d="M30.09,229.27c0.99-0.1,2.11,0.46,3.24,1.01c15.58,7.51,31.16,15,46.71,22.55c3.88,1.88,5.28,4.97,3.86,8.08
		c-1.27,2.77-4.51,4.04-7.64,2.55c-16.39-7.82-32.74-15.73-49.06-23.69c-2.48-1.21-3.62-3.5-2.88-6.26
		C25.04,230.83,26.88,229.29,30.09,229.27z"/>
	<path class="st7" d="M60.85,273.78c0.02,3.8-3.66,6.83-7.14,5.27c-9.09-4.06-18.06-8.41-26.94-12.93c-2.74-1.4-3.54-4.21-2.01-7.11
		c1.47-2.78,3.94-4.06,6.88-2.7c8.82,4.08,17.55,8.34,26.28,12.61C59.85,269.86,60.84,271.58,60.85,273.78z"/>
</g>
</svg>
