<?xml version="1.0" encoding="utf-8"?>
<!-- Generator: Adobe Illustrator 27.0.0, SVG Export Plug-In . SVG Version: 6.00 Build 0)  -->
<svg version="1.1" id="Layer_1" xmlns="http://www.w3.org/2000/svg" xmlns:xlink="http://www.w3.org/1999/xlink" x="0px" y="0px"
	 viewBox="0 0 1960.4 301.3" style="enable-background:new 0 0 1960.4 301.3;" xml:space="preserve">
<style type="text/css">
	.st0{fill:#0C0E0F;}
	.st1{fill:#131516;}
	.st2{fill:#0B0D0E;}
	.st3{fill:#0D0F10;}
	.st4{fill:#0E1011;}
	.st5{fill:#07090A;}
	.st6{fill:#166737;}
	.st7{fill:#C32A31;}
	.st8{fill:#D3712A;}
	.st9{fill:#CC4C51;}
	.st10{fill:#DA894D;}
</style>
<g>
	<g>
		<path class="st0" d="M467,150.7c6.3-1.5,9.4-8.3,16.5-9.2c10.2-1.3,17.1-0.7,20.5,11.3c6.5,22.6,14.8,44.7,23.6,70.7
			c8.7-25.6,17.3-47.4,23.4-69.9c4.9-18.2,18.3-12.3,29.2-12.3c13.9,0,7.5,11.6,7.6,17.8c0.7,31-0.1,62,0.6,92.9
			c0.2,10.1-2.2,13.6-12.9,13.5c-10.3-0.1-13.7-2.8-13.1-13.3c0.9-16.1,0.2-32.3-1-48.6c-7.1,17.1-17.1,33.8-16.8,52.2
			c0.2,10.9-4,10.9-10.9,10.6c-11.9-0.5-18.8-7.8-22.6-18.3c-5.3-14.5-10.1-29.1-18-43.1c0,14.2-1,28.5,0.3,42.6
			c1.4,14.5-3.6,19.8-17.9,17.7c-2.6-0.4-5.6,1.3-8.4,2.1c0-2.4,0-4.9,0-7.3c8-17.8,2.8-36.5,3.2-54.7c0.3-13.3,4.6-27.4-3.2-40.3
			C467,160.5,467,155.6,467,150.7z"/>
		<path class="st1" d="M467,165.3c7.8,12.8,3.5,26.9,3.2,40.3c-0.4,18.2,4.8,36.9-3.2,54.7C467,228.6,467,197,467,165.3z"/>
		<path class="st2" d="M803.3,203.4c-3.7,19.2-17.2,36-14.2,57c0.9,6.3-5.1,5.9-8.9,6.1c-14.7,0.7-22.1-8.6-26.5-20.8
			c-4.9-13.3-9-26.8-16.3-39.7c0,16.1-0.8,32.2,0.3,48.2c0.7,11.5-5.7,11-13.5,11c-7.3,0-12.8,0.2-12.6-10.1
			c0.6-31.6,0.3-63.2,0.3-94.7c0-11.9,6.9-17.1,17.8-19.3c11.5-2.3,16,3.1,19.1,13.4c6.4,21.9,14.1,43.4,22.7,69.5
			c8.7-25.8,17.3-47.2,22.9-69.5c4.8-19.2,18.7-13.7,30.2-13.4c13.7,0.3,7.3,11.8,7.4,18.2c0.7,31-0.2,61.9,0.6,92.9
			c0.3,11.1-3.9,13-13.7,13.1c-9.4,0-12.9-2.5-12.3-12.3c1-15.7,0.7-31.5,0.9-47.3c-0.1-2.1,0.4-5.7-0.5-6
			C804.5,198.7,803.4,200.9,803.3,203.4z"/>
		<path class="st3" d="M1627.9,186.8c-18-21.1-40.4-28-61-19.7c-16.7,6.8-26.8,23.3-24.8,40.5c2.1,17.4,15.1,32,32.5,35
			c15.4,2.6,30.3,2.3,39-15c-9.4-3.5-17.9-1.6-26.3-1.9c-7.7-0.3-14.9-1.9-18.7-9.2c-3.9-7.6-7.2-15.2,7.4-14.7
			c17.7,0.6,35.5,1.3,53.1-0.2c16.5-1.4,16.5,7.2,14.4,18.6c-6.3,33.4-39.5,54.2-75.1,47.1c-34.3-6.8-57.7-40.9-51.3-74.9
			c8.7-45.9,64.2-69.4,103.5-43.7C1635.6,158.4,1637.6,167.7,1627.9,186.8z"/>
		<path class="st4" d="M1431.4,184c2.3-13,12.2-12.1,21.3-10.8c11,1.5,5.6,10.6,5.7,16.1c0.6,22.5,0.3,45,0.1,67.5
			c-0.1,17.8-7,32.5-24.1,39.5c-18.4,7.5-37.4,7.1-54.3-4.2c-9.1-6-13.2-15.4-8.8-26.9c36.4,18.6,52.9,17.1,60.6-6.6
			c-20.2,10-39.4,11.3-55.4-5.4c-14.3-14.9-17.7-33-11.1-52.4c10.4-30.3,44.1-38.8,66.3-17.1c0.5,0.8,1,1.7,1.6,2.5
			c0.2-0.7,0.4-1.5,0.6-2.2C1433.1,183.9,1432.3,184,1431.4,184z M1434.2,212.3c1.8-16-10.6-16.8-20.9-18
			c-14.6-1.7-25.5,8.9-25.9,23.6c-0.3,13.9,9.6,24.5,23.2,24.6C1425.3,242.7,1433.4,232.3,1434.2,212.3z"/>
		<path class="st3" d="M999.2,208.4c0-15.2-0.1-30.3,0-45.5c0.1-10.8,4.5-19.2,16.1-20.9c65.1-9.6,89.8,28,82.7,76.2
			c-4.2,28.4-23,44.5-52,46.3c-46.9,2.9-46.9,2.9-46.9-43.4C999.2,216.9,999.2,212.7,999.2,208.4z M1024.8,203.7
			c0,7.9,0.8,15.8-0.2,23.6c-1.4,11.4,2.9,15,14.1,14c14.2-1.3,26.5-4.9,31.5-19.9c5.4-16.2,6.1-32.3-6.4-45.9
			c-9.2-10-22.2-11.3-33.9-8.2c-11.2,3-3.1,14.5-4.9,22C1023.9,193.8,1024.8,198.9,1024.8,203.7z"/>
		<path class="st3" d="M1935.7,189.7c0-16.3,0.5-26.7-0.1-36.9c-0.9-14.1,6.6-11.8,14.6-7.8c7.9,4,10,11.1,9.9,19.9
			c-0.4,28.6-1.3,57.2,0.3,85.7c1,16.9-9.3,18-18.5,13.9c-8.6-3.8-13.9-1.3-21,1.1c-16.9,5.6-31.3,0.6-42.8-12.5
			c-12.7-14.4-15.2-39.7-5.5-56.5c8.9-15.3,22-24.3,40.4-23.3C1921.6,173.8,1928.7,178,1935.7,189.7z M1935.8,214
			c2.9-14.6-9-16.6-19.6-18.1c-13.2-1.9-24.3,8.7-25.4,22.6c-1.1,13.8,8.5,26,21.2,26.9C1926.1,246.3,1934.8,235.3,1935.8,214z"/>
		<path class="st3" d="M670.6,186.5c-2.2-15.9,8-13.1,16.3-13.6c11.2-0.7,9.1,6.9,9.1,13.3c0,21.3,0,42.5,0,63.8
			c0,15.1-8,21.8-20.8,14.4c-6.6-3.8-9.5-2.8-14.9-0.4c-17.6,7.8-33.9,4.5-46.8-9.3c-15.1-16.2-17.8-35.8-9.3-55.9
			c7.1-16.9,20.4-27.1,39.4-27.8C654.8,170.6,663.8,174.8,670.6,186.5z M671.7,212.1c2.9-15-9.3-16.4-19.8-17.8
			c-14.8-2-25.6,7.7-26.9,22.7c-1.3,14.9,8.4,27.3,22,28.1C661.3,246,670.4,234.2,671.7,212.1z"/>
		<path class="st3" d="M913.6,186.3c-2.2-16.8,9.4-12.8,18-13.4c11.7-0.8,8.4,7.7,8.5,13.7c0.2,20.6,0.1,41.3,0.1,61.9
			c0,17-8.1,23.7-22.7,15.5c-6.6-3.7-9.2-1.5-13.4,0.2c-17.1,7.1-32.4,4-45.6-8.3c-14.1-13.2-18.3-36.8-10.8-55.6
			c6.9-17.3,19.3-27.8,38.2-29.2C897.4,170.2,907.3,173.8,913.6,186.3z M914.7,215.5c0.9-15.2-8.2-20.8-21.6-21.3
			c-14.4-0.5-24.4,10.5-24.3,25.7c0.1,14.1,10.3,25.2,23.2,25.3C905.5,245.1,914.6,233.2,914.7,215.5z"/>
		<path class="st3" d="M1160.1,267.9c-26.8-0.1-49-22-48.2-48.8c0.8-25.1,22-49.1,49-48.1c26.9,1,48.5,22.2,48.4,48.9
			C1209.3,246.4,1187.1,268,1160.1,267.9z M1184.5,220.3c0.4-13.9-9.4-25.2-22.6-25.8c-2.8-0.1-8.4,0.7-7.7,1.8
			c9.4,14.7-5.7,8.2-9.4,10.5c-5.8,3.7-8.5,8.5-7.9,15c1.1,14.3,9.6,21.9,23.4,22.8C1173.2,245.5,1184.1,233.8,1184.5,220.3z"/>
		<path class="st1" d="M1268.3,218.7c0-10.3,1-20.7-0.2-30.9c-1.8-14.4,6.2-18.1,16.7-14.3c9.3,3.4,16.4,1,24.8-1.2
			c22.6-5.8,40.4,7.4,41.3,30.5c0.6,17.6-0.5,35.2,0.4,52.7c0.6,12.1-7,9.9-14.1,10.4c-8.3,0.5-12-1.8-11.4-11.1
			c0.8-13.9,0.1-27.9-0.1-41.8c-0.1-9.9-2.5-20.1-14.6-18c-9.1,1.6-18.2,7.3-18,19.8c0.3,13.3-0.7,26.7,0.3,40
			c0.8,11.1-5.1,11.3-13.3,11.3c-7.8-0.1-12.6-1.1-11.9-10.9C1268.9,243,1268.3,230.8,1268.3,218.7z"/>
		<path class="st3" d="M1857.9,220.6c-0.4,26.7-22.6,47.8-49.9,47.2c-26.9-0.6-48.6-22.9-47.2-49.9c1.4-26.3,21.4-47.6,49.4-46.9
			C1837.6,171.8,1858.3,193.2,1857.9,220.6z M1833.2,217.7c0.7-11.3-10.1-25.8-22.9-22.2c-6.9,1.9-14.1,10.3-21.5,15.6
			c-5,3.6-4.3,10.7-2.2,16.8c4.1,12,13,17.8,25,16.5C1824.6,243,1831.9,234.6,1833.2,217.7z"/>
		<path class="st3" d="M1702.5,267.9c-26.9-0.2-48.6-21.9-47.9-48.9c0.7-24.7,22.6-49.2,49.2-47.9c27,1.2,48.1,22.1,48,49.1
			C1751.6,246.8,1729.6,268.1,1702.5,267.9z M1702.7,245c11.1-1.3,19.8-6.1,22.8-17.5c2.9-11.3,1.5-22.4-9.2-28.8
			c-7.6-4.5-19-12.1-18.3,7.2c-1.1,0-2.3-0.1-3.4-0.1c-12.9,0.5-16.5,8.1-14.6,19.5C1682.1,238.1,1691,243.1,1702.7,245z"/>
		<path class="st5" d="M1249.5,219.6c0,11.5-0.7,23.1,0.2,34.5c0.8,10.5-4.3,11.8-13,11.7c-8.1-0.1-12.2-1.5-11.9-11
			c0.7-20,0.2-40,0.2-60c0-7.7,1.8-14.6,9.3-18.3c9.1-4.7,16.3-6,15.3,8.6C1248.8,196.5,1249.5,208.1,1249.5,219.6z"/>
		<path class="st3" d="M1223.3,175.2c0.3-16.1-8.4-31.9,10.9-38.7c7.9-2.8,15.3,1.9,17.3,9.4
			C1257.5,168.2,1236.5,165.9,1223.3,175.2z"/>
	</g>
	<g>
		<path class="st6" d="M172.1,191.4c15.5-27.7,16.6-42.7,3-53.4c-10.9-8.6-22.9-8.2-33.8,0c-12.8,9.6-11.7,23.1,2.9,52.6
			c-35.1-2.9-61-33.8-56.4-68.3c6.3-47.4,34-83.5,63.5-118.8c4.7-5.7,7.6-3.6,11.5,0.5c28.5,30.5,53.8,63,64.7,104.2
			C238.3,148.8,213.7,185.4,172.1,191.4z"/>
		<path class="st7" d="M207.2,293.4c-16.9-5.4-26.6-12-20.5-34.2c6.5-24,15.6-45.6,30.9-64.8c25.9-32.4,57.8-57.8,95.1-80.9
			c2.2,52-6.5,97.6-38.7,136.7c-18.3,14.8-36.6,29.3-60.8,33.5C207.8,284.7,207.2,289,207.2,293.4z"/>
		<path class="st8" d="M42.3,246.8c-29-32.8-43.9-87-35.2-132.6c57.5,41.4,114.6,80.6,125.5,157.5c2,14.4-9.2,14.3-16.9,18.5
			c-0.8-6.6-5.9-5.9-10.7-7C80.4,277.4,58.5,266.9,42.3,246.8z"/>
		<path class="st9" d="M207.2,293.4c0.1-4.4,0.6-8.7,6-9.6c24.2-4.2,42.6-18.7,60.8-33.5c13,1.4,31.8,1.1,34.1,12.9
			c1.7,8.6-14.7,19.5-26.8,25.7C257.2,301.2,232.8,306.3,207.2,293.4z"/>
		<path class="st10" d="M42.3,246.8c16.2,20.1,38.1,30.6,62.6,36.3c4.8,1.1,9.9,0.5,10.7,7c-26.6,16.5-57.6,14.6-82.4-5.5
			c-7.4-6-17.8-7.3-23.8-15.4c-0.1-3.9-0.1-7.8-0.2-11.7l0.9-0.5c0,0,0.9,0.5,0.9,0.5c1.7-1,3.4-1.9,5.2-2.9
			c1.4-0.1,2.7-0.1,4.1-0.2c8.1,3.6,16.3,8.2,21.9-3.5C42.3,249.6,42.3,248.2,42.3,246.8z"/>
		<path class="st8" d="M42.3,251c-5.6,11.7-13.8,7.2-21.9,3.5C27.7,253.3,35,252.1,42.3,251z"/>
		<path class="st8" d="M9.3,257.5c0,3.9,0.1,7.8,0.2,11.7c-3.8-2.6-9.9-4.4-9.4-9.6C0.3,256.4,5.9,257.6,9.3,257.5z"/>
		<path class="st8" d="M16.3,254.7c-1.7,0.9-3.4,1.9-5.2,2.9C12.9,256.6,14.6,255.6,16.3,254.7z"/>
	</g>
</g>
</svg>
