<?xml version="1.0" encoding="utf-8"?>
<!-- Generator: Adobe Illustrator 27.0.0, SVG Export Plug-In . SVG Version: 6.00 Build 0)  -->
<svg version="1.1" id="Layer_1" xmlns="http://www.w3.org/2000/svg" xmlns:xlink="http://www.w3.org/1999/xlink" x="0px" y="0px"
	 viewBox="0 0 225 225" style="enable-background:new 0 0 225 225;" xml:space="preserve">
<style type="text/css">
	.st0{fill:#156736;}
	.st1{fill:#C3282E;}
	.st2{fill:#D37229;}
	.st3{fill:#DA8544;}
	.st4{fill:#CB5244;}
	.st5{fill:#CC5749;}
	.st6{fill:#DB884A;}
</style>
<g>
	<path class="st0" d="M66.4,99c0.2-10.2,2.7-20,6.7-29.3C79.4,55,88,41.6,97.8,29c3.6-4.6,7.3-9.1,11.1-13.5
		c0.5-0.5,0.9-1.1,1.4-1.5c0.7-0.7,1.5-0.7,2.3-0.1c0.4,0.3,0.7,0.6,1,0.9c11.2,11.9,21.7,24.3,30.2,38.4c5.9,9.8,10.8,19.9,13.7,31
		c1.9,7.2,2.6,14.5,1.6,21.9c-0.7,5.1-2.7,9.5-5.7,13.6c-7.1,9.4-16.2,16-27.2,20c-1.1,0.4-2.2,0.8-3.3,1.2c-0.9,0.3-1.5,0.1-2-0.6
		c-0.5-0.7-0.6-1.5,0-2.2c0.6-0.7,1.3-1.3,1.9-2c6.3-6.8,8.3-14.9,6-23.8c-1.9-7.3-8.7-11.9-16.3-11.8c-8,0.2-14.5,5-16.5,12.3
		c-1,3.7-0.6,7.4,0.5,11c1.2,4.4,3.3,8.3,6,12.1c0.5,0.7,1.1,1.3,1.3,2.2c0.2,0.9,0.1,1.7-0.6,2.4c-0.7,0.6-1.4,0.4-2.2,0.1
		c-6.6-3.3-13.3-6.4-19.4-10.6c-8.6-5.8-13.2-14-14.6-24.1c-0.2-1.3-0.3-2.6-0.4-3.9C66.3,101,66.4,100,66.4,99z"/>
	<path class="st1" d="M131.1,190.7c0.2-11.4,3.3-22,8.8-32c5.5-10.2,12.8-19.1,20.6-27.6c13.1-14.2,28.1-26.1,44.1-36.8
		c2.1-1.4,4.1-2.7,6.2-4.1c0.7-0.4,1.4-1,2.5-0.9c0.1,3.1,0.3,6.1,0.3,9.2c-0.1,6.6-0.3,13.2-1,19.8c-1.4,12.8-4.6,25.2-9.7,37
		c-3.4,7.9-8.3,14.9-14,21.3c-0.5,0.5-0.9,1.1-1.3,1.6c-2,1.6-3.8,3.6-5.8,5.3c-7.3,6.3-15.6,10.8-24.6,14.1
		c-5.8,2.1-11.7,3.1-17.8,3.9c-1.3,0.2-2.8,0.1-4,0.9c-1.4-0.4-2.4-1.3-3.3-2.3C131.7,197,130.9,193.9,131.1,190.7z"/>
	<path class="st2" d="M93.4,200c-0.9,1-1.9,1.9-3.3,2.3c-0.3-0.3-0.6-0.4-1-0.4c-2.7-0.4-5.5-0.5-8.3-1.1
		c-10.7-2.1-20.7-5.8-29.7-11.9c-4.7-3.2-9-6.8-13-10.8c-5.4-5.8-9.7-12.5-13.7-19.3c-2.5-4.3-4.1-9.1-5.6-13.8
		c-4-12.1-6-24.5-6.7-37.3c-0.3-5.4-0.3-10.7-0.2-16.1c0.1-2.7,0.4-2.9,2.8-1.7c0.8,0.4,1.5,0.8,2.2,1.3
		c14.2,9.6,27.9,19.7,40.3,31.7c9.5,9.2,18.3,19.1,25.4,30.3c5.5,8.8,9.4,18.2,11.1,28.4c0.5,3.1,0.6,6.2,0.8,9.3
		C94.1,194.1,93.7,197.1,93.4,200z"/>
	<path class="st3" d="M38.1,178.2c4,4,8.3,7.6,13,10.8c9.1,6.1,19.1,9.8,29.7,11.9c2.7,0.5,5.5,0.6,8.3,1.1c0.4,0.1,0.8,0.1,1,0.4
		c-4.8,3.6-10.2,5.9-15.9,7.5c-12.5,3.3-24.5,1.6-36.2-3.4c-10.8-4.6-19.9-11.7-28.3-19.8c-0.7-0.6-1.4-1.2-2.2-1.8
		c0.5-0.7,1-0.8,1.5-0.9c8.9-2.5,18-4.3,27.2-5.3C36.9,178.5,37.5,178.3,38.1,178.2z"/>
	<path class="st4" d="M135.4,202.5c1.2-0.9,2.6-0.7,4-0.9c6-0.8,12-1.9,17.8-3.9c9-3.3,17.3-7.8,24.6-14.1c2-1.7,3.8-3.7,5.8-5.3
		c4.1,0.6,8.1,1.2,12.2,1.8c5.5,0.9,10.9,2.3,16.3,3.8c0.4,0.1,0.9,0.3,1.5,0.6c-1.1,1.2-2.1,2.4-3.2,3.5
		c-9.1,8.9-19.5,15.9-31.5,20.2c-16,5.8-31.4,4-46.1-4.7C136.2,203.2,135.6,203,135.4,202.5z"/>
	<path class="st5" d="M131.1,190.7c-0.3,3.2,0.6,6.3,1,9.5c-1.6-0.8-2.8-2.2-4.1-3.4c-0.8-0.7-0.8-1.4-0.2-2.2
		C128.8,193.2,129.9,191.8,131.1,190.7z"/>
	<path class="st6" d="M93.4,200c0.3-3,0.7-6,1-9c1.3,0.8,2.1,2.2,3.2,3.3c0.7,0.8,0.6,1.5-0.1,2.2C96.1,197.9,94.9,199.2,93.4,200z"
		/>
</g>
</svg>
